Coordinates
version=1
nRows=17
nColumns=24
inDegrees=yes

Units are S.I. units (second, meters, Newtons, ...)
Angles are in degrees.

endheader
time	pelvis_tilt	pelvis_list	pelvis_rotation	pelvis_tx	pelvis_ty	pelvis_tz	hip_flexion_r	hip_adduction_r	hip_rotation_r	knee_angle_r	ankle_angle_r	subtalar_angle_r	mtp_angle_r	hip_flexion_l	hip_adduction_l	hip_rotation_l	knee_angle_l	ankle_angle_l	subtalar_angle_l	mtp_angle_l	lumbar_extension	lumbar_bending	lumbar_rotation
      0.54600000	     -0.51723202	      5.52710416	      1.82788447	     -0.77141123	      0.98864240	      0.27395592	     25.38659846	     -5.10466331	     -6.70624832	     -2.01467836	      5.27019070	     -3.08244174	     10.56381626	    -19.54566316	      8.16652664	      6.55543062	     -0.70086245	      9.97446701	    -12.99221068	      3.21962386	     -3.97464789	     -6.94844188	     -4.22957792
      0.55016667	     -0.52217877	      5.48352860	      1.90329837	     -0.76529108	      0.98801568	      0.27418156	     25.44624701	     -5.06169323	     -6.47027552	     -2.42502752	      5.29079186	     -3.38172104	     10.56544673	    -19.64299359	      8.06987455	      6.60261377	     -1.24410714	     10.09227086	    -12.86994654	      3.27538220	     -3.94576800	     -6.86535281	     -4.35685050
      0.55433333	     -0.51860083	      5.42736694	      1.98056881	     -0.75911501	      0.98744874	      0.27440609	     25.48528924	     -5.00504953	     -6.22316187	     -2.88046959	      5.26023944	     -3.72267674	     10.58043304	    -19.72078789	      7.96074749	      6.61371759	     -1.85164616	     10.22083559	    -12.69434893	      3.35215808	     -3.92022788	     -6.75832366	     -4.47202815
      0.55850000	     -0.50072244	      5.36596544	      2.05401268	     -0.75288451	      0.98694396	      0.27463589	     25.51253970	     -4.94182856	     -5.98588930	     -3.40890008	      5.24561240	     -4.02045698	     10.59666605	    -19.81843820	      7.84770885	      6.66720138	     -2.44377345	     10.31667391	    -12.59057782	      3.40626856	     -3.91197182	     -6.64170144	     -4.54305396
      0.56266667	     -0.51283415	      5.29361364	      2.11606850	     -0.74657897	      0.98644223	      0.27490413	     25.55613403	     -4.85551817	     -5.70157541	     -3.95044969	      5.05506137	     -4.48107278	     10.63520370	    -19.84220059	      7.72718398	      6.58928478	     -3.11799503	     10.38605377	    -12.34078180	      3.51476820	     -3.83999359	     -6.51882907	     -4.66721639
      0.56683333	     -0.50398711	      5.21237197	      2.17645158	     -0.74023590	      0.98601002	      0.27518389	     25.57482738	     -4.75740394	     -5.42448262	     -4.53778874	      4.87481507	     -4.90228657	     10.68968663	    -19.86888270	      7.59865550	      6.52529254	     -3.83557788	     10.44969475	    -12.12250755	      3.64852784	     -3.80339488	     -6.38380049	     -4.74387668
      0.57100000	     -0.48382599	      5.13508525	      2.23341412	     -0.73386476	      0.98562966	      0.27546595	     25.58632400	     -4.66160772	     -5.15858396	     -5.17745353	      4.70650672	     -5.27867338	     10.73391411	    -19.90181707	      7.47858082	      6.51362599	     -4.56445025	     10.49613741	    -11.99765834	      3.75301679	     -3.78221505	     -6.25288220	     -4.80402813
      0.57516667	     -0.49032051	      5.05339135	      2.28095855	     -0.72742173	      0.98526655	      0.27578304	     25.61302674	     -4.55102571	     -4.86565237	     -5.81886088	      4.40709184	     -5.74759970	     10.79127123	    -19.86642453	      7.35725035	      6.40961648	     -5.36491088	     10.48948072	    -11.79143431	      3.89166436	     -3.70195621	     -6.11799360	     -4.87555318
      0.57933333	     -0.47403784	      4.95339787	      2.31863252	     -0.72092520	      0.98497121	      0.27611969	     25.60635309	     -4.41489144	     -4.58431973	     -6.47272447	      4.06991772	     -6.21067149	     10.86540304	    -19.84060663	      7.21808188	      6.26777833	     -6.19711434	     10.45661857	    -11.54403070	      4.07248042	     -3.64683894	     -5.95950067	     -4.92580438
      0.58350000	     -0.40393821	      4.82635211	      2.34038681	     -0.71436057	      0.98479910	      0.27649243	     25.52491871	     -4.24222625	     -4.33129738	     -7.11546119	      3.67582214	     -6.62923190	     11.11594125	    -19.83533401	      7.04445239	      5.97719171	     -7.09027328	     10.42774479	    -11.11690434	      4.68909296	     -3.65078391	     -5.75944433	     -4.93793030
      0.58766667	     -0.44340705	      4.76456579	      2.37263492	     -0.70782084	      0.98450816	      0.27684697	     25.60622509	     -4.14372936	     -4.08003846	     -7.86997227	      3.34699891	     -7.00496291	     11.17554537	    -19.71126112	      6.96096466	      5.93446472	     -7.98968550	     10.25554071	    -11.09629876	      4.86067602	     -3.52218842	     -5.65819290	     -4.97623820
      0.59183333	     -0.43936272	      4.65086132	      2.38256417	     -0.70118614	      0.98429989	      0.27724316	     25.62882943	     -3.98595716	     -3.89966429	     -8.61704846	      3.00794848	     -7.26279717	     12.65323134	    -19.55691270	      6.80492845	      5.53060404	     -9.03182373	     10.15564649	    -10.62306647	      9.27183622	     -3.42768471	     -5.47634231	     -4.95699511
      0.59600000	     -0.39027983	      4.54847622	      2.39903147	     -0.69455982	      0.98425729	      0.27766359	     25.55440305	     -3.82589283	     -3.60284084	     -9.27725894	      2.50707560	     -7.81462206	     12.64639663	    -19.48409007	      6.67411704	      5.42204355	     -9.99300318	      9.84897471	    -10.60596071	      9.36555918	     -3.39692563	     -5.31739347	     -4.98645133
      0.60016667	     -0.37597984	      4.46369598	      2.38202564	     -0.68792021	      0.98416653	      0.27813324	     25.55795877	     -3.67795317	     -3.35487799	    -10.02078234	      2.06355267	     -8.15395492	     12.64584267	    -19.31851337	      6.56669947	      5.15998973	    -11.06449409	      9.58550663	    -10.37893659	      9.49164501	     -3.32101039	     -5.18757424	     -4.97594988
      0.60433333	     -0.34265259	      4.35858352	      2.36746240	     -0.68125119	      0.98414311	      0.27861081	     25.53272124	     -3.51036444	     -3.13631419	    -10.76468218	      1.65809231	     -8.48449863	     12.64776437	    -19.12967559	      6.42896225	      4.82086950	    -12.21551873	      9.30444570	    -10.08016009	      9.66960598	     -3.25956245	     -5.02422248	     -4.94605993
      0.60850000	     -0.27827324	      4.23402989	      2.36429867	     -0.67457784	      0.98421112	      0.27909952	     25.46054763	     -3.32637511	     -2.95711383	    -11.49717405	      1.28828927	     -8.81988614	     12.65314568	    -18.91859773	      6.25442976	      4.41180022	    -13.46938076	      9.06003622	     -9.67089349	     10.08569932	     -3.23575905	     -4.82798070	     -4.89016141
      0.61266667	     -0.25121188	      4.14056355	      2.33508748	     -0.66791076	      0.98425439	      0.27963037	     25.44585259	     -3.16545610	     -2.75174334	    -12.26014442	      0.91854425	     -9.09760391	     12.65194676	    -18.65188402	      6.12367535	      4.02686421	    -14.73778544	      8.66631459	     -9.38520501	     10.53796694	     -3.16318619	     -4.68453253	     -4.83810095
